<?xml version="1.0" encoding="UTF-8"?>
<!DOCTYPE svg PUBLIC "-//W3C//DTD SVG 1.1//EN" "http://www.w3.org/Graphics/SVG/1.1/DTD/svg11.dtd">
<!-- Creator: CorelDRAW X7 -->
<svg xmlns="http://www.w3.org/2000/svg" xml:space="preserve" width="551px" height="83px" version="1.1" style="shape-rendering:geometricPrecision; text-rendering:geometricPrecision; image-rendering:optimizeQuality; fill-rule:evenodd; clip-rule:evenodd"
viewBox="0 0 55100 8300"
 xmlns:xlink="http://www.w3.org/1999/xlink">
 <defs>
  <style type="text/css">
   <![CDATA[
    .fil0 {fill:none;fill-rule:nonzero}
    .fil2 {fill:#6DA031}
    .fil5 {fill:#660087}
    .fil7 {fill:#CC0000}
    .fil1 {fill:#E31E24}
    .fil3 {fill:#F24F00}
    .fil4 {fill:#FCC917}
    .fil6 {fill:#FEFEFE;fill-rule:nonzero}
    .fil8 {fill:white;fill-rule:nonzero}
   ]]>
  </style>
 </defs>
 <g id="Слой_x0020_1">
  <metadata id="CorelCorpID_0Corel-Layer"/>
  <g id="_531141760">
   <polygon class="fil0" points="55050,8292 0,8292 0,0 55050,0 "/>
   <rect class="fil1" x="10937" y="1105" width="4594" height="5681"/>
   <rect class="fil2" x="995" y="1105" width="4594" height="5681"/>
   <rect class="fil3" x="5958" y="1105" width="4594" height="5681"/>
   <rect class="fil4" x="15864" y="1105" width="4594" height="5681"/>
   <rect class="fil5" x="20809" y="1105" width="4594" height="5681"/>
   <path class="fil6" d="M7311 3945c0,311 91,572 273,782 181,210 405,316 671,316 267,0 491,-105 672,-314 181,-210 271,-471 271,-784 0,-315 -90,-578 -271,-788 -181,-210 -405,-315 -672,-315 -266,0 -490,105 -671,315 -182,210 -273,473 -273,788zm-878 0c0,-266 46,-514 137,-745 91,-232 226,-438 403,-621 168,-175 363,-309 585,-402 221,-93 454,-140 697,-140 243,0 475,48 698,141 223,94 421,230 593,406 174,176 306,379 395,611 90,231 135,482 135,750 0,224 -31,435 -94,632 -63,198 -155,378 -279,542 -174,232 -387,412 -641,540 -254,129 -523,193 -807,193 -242,0 -473,-47 -694,-140 -221,-94 -417,-230 -588,-406 -177,-182 -312,-389 -403,-619 -91,-229 -137,-477 -137,-742z"/>
   <path class="fil6" d="M12291 3945c0,311 91,572 272,782 182,210 406,316 671,316 268,0 492,-105 673,-314 181,-210 271,-471 271,-784 0,-315 -90,-578 -271,-788 -181,-210 -405,-315 -673,-315 -265,0 -489,105 -671,315 -181,210 -272,473 -272,788zm-878 0c0,-266 46,-514 137,-745 91,-232 226,-438 403,-621 167,-175 362,-309 584,-402 221,-93 454,-140 697,-140 243,0 476,48 699,141 223,94 420,230 593,406 174,176 306,379 395,611 90,231 134,482 134,750 0,224 -31,435 -93,632 -63,198 -156,378 -279,542 -174,232 -388,412 -642,540 -253,129 -523,193 -807,193 -241,0 -472,-47 -693,-140 -222,-94 -417,-230 -588,-406 -177,-182 -312,-389 -403,-619 -91,-229 -137,-477 -137,-742z"/>
   <polygon class="fil6" points="16045,5728 16787,2030 16848,2030 18196,4362 19467,2030 19531,2030 20278,5728 19467,5728 19164,4092 18206,5860 18149,5860 17120,4068 16806,5728 "/>
   <polygon class="fil6" points="22680,5736 22680,2154 23532,2154 23532,5736 "/>
   <rect class="fil1" x="10918" y="6982" width="4585" height="358"/>
   <rect class="fil2" x="995" y="6982" width="4585" height="358"/>
   <rect class="fil3" x="5948" y="6982" width="4585" height="358"/>
   <rect class="fil4" x="15836" y="6982" width="4585" height="358"/>
   <rect class="fil5" x="20771" y="6982" width="4585" height="358"/>
   <path class="fil6" d="M3062 2093c0,-119 42,-219 123,-301 83,-83 183,-124 303,-124 118,0 217,40 299,122 82,82 123,182 123,303 0,119 -41,220 -125,304 -82,84 -181,126 -297,126 -117,0 -217,-42 -300,-127 -84,-85 -126,-186 -126,-303zm818 3066c0,204 -14,376 -41,516 -27,140 -70,269 -129,387l-1035 160c149,-147 256,-308 323,-484 66,-176 100,-398 100,-666l0 -2149 782 -106 0 2342z"/>
   <rect class="fil7" x="25850" y="1096" width="28200" height="6196"/>
   <polygon class="fil8" points="26457,6354 27380,1752 27456,1752 29134,4654 30716,1752 30795,1752 31724,6354 30716,6354 30339,4319 29146,6518 29075,6518 27794,4288 27404,6354 "/>
   <polygon id="1" class="fil8" points="32382,6354 32382,1896 33443,1896 33443,6354 "/>
   <polygon id="2" class="fil8" points="34479,6354 34479,1752 34581,1752 37348,4353 37348,1896 38327,1896 38327,6524 38235,6524 35458,3923 35458,6354 "/>
   <polygon id="3" class="fil8" points="39356,6354 39356,1896 40417,1896 40417,6354 "/>
   <polygon id="4" class="fil8" points="41208,5397 41208,4541 42834,4541 42834,5397 "/>
   <polygon id="5" class="fil8" points="43241,6354 44164,1752 44240,1752 45917,4654 47499,1752 47579,1752 48508,6354 47499,6354 47122,4319 45930,6518 45859,6518 44578,4288 44188,6354 "/>
   <path id="6" class="fil8" d="M49969 4125c0,388 113,713 339,974 226,262 505,393 835,393 333,0 612,-130 837,-391 225,-261 337,-586 337,-976 0,-391 -112,-718 -337,-980 -225,-261 -504,-392 -837,-392 -330,0 -609,131 -835,392 -226,262 -339,589 -339,980zm-1092 0c0,-330 57,-639 171,-926 113,-289 280,-546 501,-774 208,-217 451,-384 727,-499 275,-117 565,-174 867,-174 303,0 593,58 870,175 277,116 523,285 737,505 217,219 381,472 492,760 112,288 168,600 168,933 0,280 -39,542 -117,787 -78,246 -193,471 -347,674 -216,289 -482,513 -798,673 -316,160 -651,240 -1005,240 -300,0 -588,-59 -863,-175 -275,-117 -519,-285 -731,-505 -221,-226 -388,-484 -501,-770 -114,-286 -171,-594 -171,-924z"/>
  </g>
 </g>
</svg>
