<?xml version="1.0" encoding="UTF-8"?>
<!DOCTYPE svg PUBLIC "-//W3C//DTD SVG 1.1//EN" "http://www.w3.org/Graphics/SVG/1.1/DTD/svg11.dtd">
<!-- Creator: CorelDRAW X7 -->
<svg xmlns="http://www.w3.org/2000/svg" xml:space="preserve" width="630px" height="83px" version="1.1" style="shape-rendering:geometricPrecision; text-rendering:geometricPrecision; image-rendering:optimizeQuality; fill-rule:evenodd; clip-rule:evenodd"
viewBox="0 0 63000 8300"
 xmlns:xlink="http://www.w3.org/1999/xlink">
 <defs>
  <style type="text/css">
   <![CDATA[
    .fil0 {fill:none;fill-rule:nonzero}
    .fil2 {fill:#6DA031}
    .fil6 {fill:#0033AB}
    .fil5 {fill:#660087}
    .fil9 {fill:#CC3399}
    .fil8 {fill:#CC3399}
    .fil10 {fill:#CE0900}
    .fil1 {fill:#E31E24}
    .fil3 {fill:#F24F00}
    .fil4 {fill:#FCC917}
    .fil7 {fill:#FEFEFE;fill-rule:nonzero}
    .fil11 {fill:white;fill-rule:nonzero}
   ]]>
  </style>
 </defs>
 <g id="Слой_x0020_1">
  <metadata id="CorelCorpID_0Corel-Layer"/>
  <g id="_461099016">
   <polygon class="fil0" points="62950,8292 0,8292 0,0 62950,0 "/>
   <rect class="fil1" x="10937" y="1105" width="4594" height="5681"/>
   <rect class="fil2" x="995" y="1105" width="4594" height="5681"/>
   <rect class="fil3" x="5958" y="1105" width="4594" height="5681"/>
   <rect class="fil4" x="15864" y="1105" width="4594" height="5681"/>
   <rect class="fil5" x="20809" y="1105" width="4594" height="5681"/>
   <rect class="fil6" x="25754" y="1105" width="4594" height="5681"/>
   <polygon class="fil7" points="8307,6002 8248,6002 6562,2283 7465,2283 8307,4242 9157,2283 9993,2283 "/>
   <path class="fil7" d="M12742 4653l939 0 -464 -1121 -475 1121zm-1336 1139l1822 -3694 53 0 1782 3694 -892 0 -226 -521 -1450 0 -231 521 -858 0z"/>
   <polygon class="fil7" points="16615,5726 16615,2027 16697,2027 18921,4118 18921,2144 19707,2144 19707,5863 19634,5863 17402,3772 17402,5726 "/>
   <polygon class="fil7" points="22682,5736 22682,2903 21547,2903 21547,2154 24665,2154 24665,2903 23535,2903 23535,5736 "/>
   <polygon class="fil7" points="27624,5736 27624,2154 28477,2154 28477,5736 "/>
   <rect class="fil1" x="10918" y="6982" width="4585" height="358"/>
   <rect class="fil2" x="995" y="6982" width="4585" height="358"/>
   <rect class="fil3" x="5948" y="6982" width="4585" height="358"/>
   <rect class="fil4" x="15836" y="6982" width="4585" height="358"/>
   <rect class="fil5" x="20771" y="6982" width="4585" height="358"/>
   <rect class="fil6" x="25706" y="6982" width="4585" height="358"/>
   <path class="fil7" d="M2800 4653l939 0 -464 -1121 -475 1121zm-1336 1139l1822 -3694 53 0 1782 3694 -892 0 -226 -521 -1450 0 -231 521 -858 0z"/>
   <rect class="fil8" x="30694" y="1090" width="4594" height="5681"/>
   <rect class="fil9" x="30694" y="6967" width="4585" height="358"/>
   <path class="fil7" d="M31846 4712c219,135 406,229 560,283 153,54 302,81 449,81 147,0 265,-33 355,-97 89,-65 134,-149 134,-251 0,-146 -159,-311 -478,-493 -51,-30 -90,-53 -118,-69l-241 -137c-235,-133 -409,-284 -522,-452 -113,-168 -169,-358 -169,-571 0,-288 108,-524 325,-709 216,-185 496,-277 839,-277 127,0 264,15 411,45 148,29 312,76 493,138l0 839c-173,-108 -336,-191 -490,-250 -155,-59 -286,-89 -395,-89 -120,0 -214,26 -283,78 -69,51 -103,122 -103,211 0,62 20,120 61,174 41,55 103,104 185,149l419 232c350,194 586,374 707,538 121,166 181,361 181,587 0,349 -118,631 -355,846 -238,215 -553,322 -945,322 -133,0 -278,-14 -434,-42 -156,-28 -328,-71 -515,-131l-71 -955z"/>
   <rect class="fil10" x="35834" y="1096" width="26116" height="6196"/>
   <polygon class="fil11" points="36441,6354 37364,1752 37440,1752 39117,4654 40699,1752 40779,1752 41708,6354 40699,6354 40323,4319 39130,6518 39059,6518 37778,4288 37388,6354 "/>
   <polygon id="1" class="fil11" points="42366,6354 42366,1896 43427,1896 43427,6354 "/>
   <polygon id="2" class="fil11" points="44463,6354 44463,1752 44564,1752 47332,4353 47332,1896 48311,1896 48311,6524 48219,6524 45442,3923 45442,6354 "/>
   <polygon id="3" class="fil11" points="49340,6354 49340,1896 50401,1896 50401,6354 "/>
   <polygon id="4" class="fil11" points="51072,6354 51995,1752 52071,1752 53749,4654 55331,1752 55410,1752 56339,6354 55331,6354 54954,4319 53761,6518 53690,6518 52409,4288 52019,6354 "/>
   <path id="5" class="fil11" d="M57801 4125c0,388 113,713 339,974 226,262 504,393 835,393 333,0 612,-130 837,-391 225,-261 337,-586 337,-976 0,-391 -112,-718 -337,-980 -225,-261 -504,-392 -837,-392 -331,0 -609,131 -835,392 -226,262 -339,589 -339,980zm-1092 0c0,-330 56,-639 170,-926 113,-289 281,-546 501,-774 208,-217 451,-384 727,-499 276,-117 565,-174 868,-174 302,0 592,58 869,175 278,116 523,285 738,505 216,219 381,472 492,760 112,288 167,600 167,933 0,280 -39,542 -116,787 -78,246 -194,471 -347,674 -217,289 -483,513 -799,673 -316,160 -651,240 -1004,240 -300,0 -588,-59 -863,-175 -276,-117 -519,-285 -732,-505 -220,-226 -388,-484 -501,-770 -114,-286 -170,-594 -170,-924z"/>
  </g>
 </g>
</svg>
